<?xml version="1.0" standalone="yes"?><svg xmlns="http://www.w3.org/2000/svg" version="1.1" width="513" height="513" viewBox="0 0 513 513" shape-rendering="crispEdges"><rect x="0" y="0" width="513" height="513" fill="#ffffff"/><path fill="#000000" d="M36 36h9v9H36V36M45 36h9v9H45V36M54 36h9v9H54V36M63 36h9v9H63V36M72 36h9v9H72V36M81 36h9v9H81V36M90 36h9v9H90V36M126 36h9v9H126V36M135 36h9v9H135V36M153 36h9v9H153V36M180 36h9v9H180V36M234 36h9v9H234V36M252 36h9v9H252V36M261 36h9v9H261V36M270 36h9v9H270V36M288 36h9v9H288V36M297 36h9v9H297V36M306 36h9v9H306V36M315 36h9v9H315V36M324 36h9v9H324V36M342 36h9v9H342V36M351 36h9v9H351V36M369 36h9v9H369V36M396 36h9v9H396V36M414 36h9v9H414V36M423 36h9v9H423V36M432 36h9v9H432V36M441 36h9v9H441V36M450 36h9v9H450V36M459 36h9v9H459V36M468 36h9v9H468V36M36 45h9v9H36V45M90 45h9v9H90V45M108 45h9v9H108V45M117 45h9v9H117V45M126 45h9v9H126V45M153 45h9v9H153V45M162 45h9v9H162V45M189 45h9v9H189V45M234 45h9v9H234V45M252 45h9v9H252V45M261 45h9v9H261V45M306 45h9v9H306V45M315 45h9v9H315V45M333 45h9v9H333V45M369 45h9v9H369V45M378 45h9v9H378V45M387 45h9v9H387V45M396 45h9v9H396V45M414 45h9v9H414V45M468 45h9v9H468V45M36 54h9v9H36V54M54 54h9v9H54V54M63 54h9v9H63V54M72 54h9v9H72V54M90 54h9v9H90V54M108 54h9v9H108V54M117 54h9v9H117V54M126 54h9v9H126V54M144 54h9v9H144V54M153 54h9v9H153V54M180 54h9v9H180V54M189 54h9v9H189V54M207 54h9v9H207V54M243 54h9v9H243V54M252 54h9v9H252V54M261 54h9v9H261V54M270 54h9v9H270V54M297 54h9v9H297V54M306 54h9v9H306V54M333 54h9v9H333V54M342 54h9v9H342V54M387 54h9v9H387V54M396 54h9v9H396V54M414 54h9v9H414V54M432 54h9v9H432V54M441 54h9v9H441V54M450 54h9v9H450V54M468 54h9v9H468V54M36 63h9v9H36V63M54 63h9v9H54V63M63 63h9v9H63V63M72 63h9v9H72V63M90 63h9v9H90V63M108 63h9v9H108V63M117 63h9v9H117V63M126 63h9v9H126V63M180 63h9v9H180V63M189 63h9v9H189V63M207 63h9v9H207V63M216 63h9v9H216V63M225 63h9v9H225V63M234 63h9v9H234V63M252 63h9v9H252V63M261 63h9v9H261V63M270 63h9v9H270V63M279 63h9v9H279V63M288 63h9v9H288V63M297 63h9v9H297V63M306 63h9v9H306V63M315 63h9v9H315V63M324 63h9v9H324V63M333 63h9v9H333V63M342 63h9v9H342V63M351 63h9v9H351V63M369 63h9v9H369V63M387 63h9v9H387V63M414 63h9v9H414V63M432 63h9v9H432V63M441 63h9v9H441V63M450 63h9v9H450V63M468 63h9v9H468V63M36 72h9v9H36V72M54 72h9v9H54V72M63 72h9v9H63V72M72 72h9v9H72V72M90 72h9v9H90V72M171 72h9v9H171V72M198 72h9v9H198V72M225 72h9v9H225V72M234 72h9v9H234V72M243 72h9v9H243V72M252 72h9v9H252V72M261 72h9v9H261V72M270 72h9v9H270V72M279 72h9v9H279V72M306 72h9v9H306V72M315 72h9v9H315V72M324 72h9v9H324V72M351 72h9v9H351V72M360 72h9v9H360V72M369 72h9v9H369V72M414 72h9v9H414V72M432 72h9v9H432V72M441 72h9v9H441V72M450 72h9v9H450V72M468 72h9v9H468V72M36 81h9v9H36V81M90 81h9v9H90V81M144 81h9v9H144V81M153 81h9v9H153V81M162 81h9v9H162V81M180 81h9v9H180V81M189 81h9v9H189V81M198 81h9v9H198V81M207 81h9v9H207V81M234 81h9v9H234V81M270 81h9v9H270V81M288 81h9v9H288V81M297 81h9v9H297V81M315 81h9v9H315V81M324 81h9v9H324V81M342 81h9v9H342V81M360 81h9v9H360V81M378 81h9v9H378V81M414 81h9v9H414V81M468 81h9v9H468V81M36 90h9v9H36V90M45 90h9v9H45V90M54 90h9v9H54V90M63 90h9v9H63V90M72 90h9v9H72V90M81 90h9v9H81V90M90 90h9v9H90V90M108 90h9v9H108V90M126 90h9v9H126V90M144 90h9v9H144V90M162 90h9v9H162V90M180 90h9v9H180V90M198 90h9v9H198V90M216 90h9v9H216V90M234 90h9v9H234V90M252 90h9v9H252V90M270 90h9v9H270V90M288 90h9v9H288V90M306 90h9v9H306V90M324 90h9v9H324V90M342 90h9v9H342V90M360 90h9v9H360V90M378 90h9v9H378V90M396 90h9v9H396V90M414 90h9v9H414V90M423 90h9v9H423V90M432 90h9v9H432V90M441 90h9v9H441V90M450 90h9v9H450V90M459 90h9v9H459V90M468 90h9v9H468V90M108 99h9v9H108V99M117 99h9v9H117V99M135 99h9v9H135V99M144 99h9v9H144V99M171 99h9v9H171V99M180 99h9v9H180V99M189 99h9v9H189V99M225 99h9v9H225V99M234 99h9v9H234V99M270 99h9v9H270V99M279 99h9v9H279V99M288 99h9v9H288V99M297 99h9v9H297V99M324 99h9v9H324V99M351 99h9v9H351V99M360 99h9v9H360V99M378 99h9v9H378V99M396 99h9v9H396V99M36 108h9v9H36V108M90 108h9v9H90V108M108 108h9v9H108V108M135 108h9v9H135V108M144 108h9v9H144V108M162 108h9v9H162V108M171 108h9v9H171V108M189 108h9v9H189V108M207 108h9v9H207V108M216 108h9v9H216V108M234 108h9v9H234V108M243 108h9v9H243V108M252 108h9v9H252V108M261 108h9v9H261V108M270 108h9v9H270V108M279 108h9v9H279V108M297 108h9v9H297V108M315 108h9v9H315V108M333 108h9v9H333V108M351 108h9v9H351V108M360 108h9v9H360V108M378 108h9v9H378V108M405 108h9v9H405V108M414 108h9v9H414V108M441 108h9v9H441V108M450 108h9v9H450V108M459 108h9v9H459V108M45 117h9v9H45V117M54 117h9v9H54V117M72 117h9v9H72V117M81 117h9v9H81V117M99 117h9v9H99V117M108 117h9v9H108V117M126 117h9v9H126V117M162 117h9v9H162V117M198 117h9v9H198V117M234 117h9v9H234V117M243 117h9v9H243V117M252 117h9v9H252V117M261 117h9v9H261V117M270 117h9v9H270V117M297 117h9v9H297V117M306 117h9v9H306V117M324 117h9v9H324V117M333 117h9v9H333V117M342 117h9v9H342V117M378 117h9v9H378V117M396 117h9v9H396V117M432 117h9v9H432V117M441 117h9v9H441V117M450 117h9v9H450V117M468 117h9v9H468V117M54 126h9v9H54V126M63 126h9v9H63V126M81 126h9v9H81V126M90 126h9v9H90V126M99 126h9v9H99V126M126 126h9v9H126V126M144 126h9v9H144V126M153 126h9v9H153V126M171 126h9v9H171V126M207 126h9v9H207V126M216 126h9v9H216V126M225 126h9v9H225V126M252 126h9v9H252V126M270 126h9v9H270V126M279 126h9v9H279V126M315 126h9v9H315V126M324 126h9v9H324V126M333 126h9v9H333V126M360 126h9v9H360V126M378 126h9v9H378V126M405 126h9v9H405V126M459 126h9v9H459V126M468 126h9v9H468V126M63 135h9v9H63V135M108 135h9v9H108V135M126 135h9v9H126V135M135 135h9v9H135V135M144 135h9v9H144V135M171 135h9v9H171V135M180 135h9v9H180V135M189 135h9v9H189V135M207 135h9v9H207V135M252 135h9v9H252V135M288 135h9v9H288V135M297 135h9v9H297V135M324 135h9v9H324V135M342 135h9v9H342V135M351 135h9v9H351V135M396 135h9v9H396V135M423 135h9v9H423V135M432 135h9v9H432V135M459 135h9v9H459V135M36 144h9v9H36V144M45 144h9v9H45V144M54 144h9v9H54V144M63 144h9v9H63V144M72 144h9v9H72V144M81 144h9v9H81V144M90 144h9v9H90V144M99 144h9v9H99V144M108 144h9v9H108V144M144 144h9v9H144V144M162 144h9v9H162V144M189 144h9v9H189V144M198 144h9v9H198V144M207 144h9v9H207V144M216 144h9v9H216V144M225 144h9v9H225V144M234 144h9v9H234V144M252 144h9v9H252V144M261 144h9v9H261V144M288 144h9v9H288V144M297 144h9v9H297V144M315 144h9v9H315V144M324 144h9v9H324V144M333 144h9v9H333V144M342 144h9v9H342V144M360 144h9v9H360V144M369 144h9v9H369V144M405 144h9v9H405V144M423 144h9v9H423V144M432 144h9v9H432V144M441 144h9v9H441V144M459 144h9v9H459V144M468 144h9v9H468V144M45 153h9v9H45V153M63 153h9v9H63V153M72 153h9v9H72V153M81 153h9v9H81V153M99 153h9v9H99V153M126 153h9v9H126V153M144 153h9v9H144V153M162 153h9v9H162V153M198 153h9v9H198V153M207 153h9v9H207V153M216 153h9v9H216V153M225 153h9v9H225V153M234 153h9v9H234V153M252 153h9v9H252V153M288 153h9v9H288V153M297 153h9v9H297V153M306 153h9v9H306V153M315 153h9v9H315V153M333 153h9v9H333V153M342 153h9v9H342V153M351 153h9v9H351V153M360 153h9v9H360V153M414 153h9v9H414V153M423 153h9v9H423V153M441 153h9v9H441V153M45 162h9v9H45V162M54 162h9v9H54V162M90 162h9v9H90V162M99 162h9v9H99V162M117 162h9v9H117V162M144 162h9v9H144V162M153 162h9v9H153V162M162 162h9v9H162V162M171 162h9v9H171V162M189 162h9v9H189V162M198 162h9v9H198V162M216 162h9v9H216V162M225 162h9v9H225V162M234 162h9v9H234V162M252 162h9v9H252V162M270 162h9v9H270V162M279 162h9v9H279V162M306 162h9v9H306V162M315 162h9v9H315V162M324 162h9v9H324V162M333 162h9v9H333V162M342 162h9v9H342V162M360 162h9v9H360V162M378 162h9v9H378V162M387 162h9v9H387V162M396 162h9v9H396V162M423 162h9v9H423V162M441 162h9v9H441V162M450 162h9v9H450V162M459 162h9v9H459V162M468 162h9v9H468V162M54 171h9v9H54V171M63 171h9v9H63V171M99 171h9v9H99V171M108 171h9v9H108V171M126 171h9v9H126V171M144 171h9v9H144V171M153 171h9v9H153V171M162 171h9v9H162V171M171 171h9v9H171V171M180 171h9v9H180V171M198 171h9v9H198V171M207 171h9v9H207V171M225 171h9v9H225V171M288 171h9v9H288V171M306 171h9v9H306V171M324 171h9v9H324V171M351 171h9v9H351V171M360 171h9v9H360V171M396 171h9v9H396V171M414 171h9v9H414V171M432 171h9v9H432V171M468 171h9v9H468V171M45 180h9v9H45V180M63 180h9v9H63V180M72 180h9v9H72V180M81 180h9v9H81V180M90 180h9v9H90V180M162 180h9v9H162V180M180 180h9v9H180V180M198 180h9v9H198V180M225 180h9v9H225V180M252 180h9v9H252V180M270 180h9v9H270V180M288 180h9v9H288V180M297 180h9v9H297V180M324 180h9v9H324V180M333 180h9v9H333V180M360 180h9v9H360V180M369 180h9v9H369V180M387 180h9v9H387V180M396 180h9v9H396V180M423 180h9v9H423V180M450 180h9v9H450V180M36 189h9v9H36V189M72 189h9v9H72V189M81 189h9v9H81V189M99 189h9v9H99V189M117 189h9v9H117V189M135 189h9v9H135V189M162 189h9v9H162V189M171 189h9v9H171V189M180 189h9v9H180V189M198 189h9v9H198V189M225 189h9v9H225V189M243 189h9v9H243V189M288 189h9v9H288V189M297 189h9v9H297V189M324 189h9v9H324V189M342 189h9v9H342V189M360 189h9v9H360V189M387 189h9v9H387V189M405 189h9v9H405V189M414 189h9v9H414V189M432 189h9v9H432V189M459 189h9v9H459V189M36 198h9v9H36V198M45 198h9v9H45V198M54 198h9v9H54V198M90 198h9v9H90V198M99 198h9v9H99V198M126 198h9v9H126V198M135 198h9v9H135V198M144 198h9v9H144V198M162 198h9v9H162V198M189 198h9v9H189V198M198 198h9v9H198V198M207 198h9v9H207V198M243 198h9v9H243V198M252 198h9v9H252V198M261 198h9v9H261V198M270 198h9v9H270V198M306 198h9v9H306V198M333 198h9v9H333V198M351 198h9v9H351V198M378 198h9v9H378V198M396 198h9v9H396V198M423 198h9v9H423V198M432 198h9v9H432V198M450 198h9v9H450V198M459 198h9v9H459V198M36 207h9v9H36V207M45 207h9v9H45V207M54 207h9v9H54V207M63 207h9v9H63V207M108 207h9v9H108V207M117 207h9v9H117V207M126 207h9v9H126V207M144 207h9v9H144V207M171 207h9v9H171V207M189 207h9v9H189V207M198 207h9v9H198V207M225 207h9v9H225V207M261 207h9v9H261V207M270 207h9v9H270V207M288 207h9v9H288V207M297 207h9v9H297V207M306 207h9v9H306V207M333 207h9v9H333V207M342 207h9v9H342V207M351 207h9v9H351V207M360 207h9v9H360V207M369 207h9v9H369V207M396 207h9v9H396V207M414 207h9v9H414V207M423 207h9v9H423V207M432 207h9v9H432V207M441 207h9v9H441V207M468 207h9v9H468V207M36 216h9v9H36V216M72 216h9v9H72V216M81 216h9v9H81V216M90 216h9v9H90V216M108 216h9v9H108V216M135 216h9v9H135V216M144 216h9v9H144V216M162 216h9v9H162V216M216 216h9v9H216V216M225 216h9v9H225V216M234 216h9v9H234V216M243 216h9v9H243V216M252 216h9v9H252V216M270 216h9v9H270V216M297 216h9v9H297V216M315 216h9v9H315V216M333 216h9v9H333V216M360 216h9v9H360V216M369 216h9v9H369V216M378 216h9v9H378V216M387 216h9v9H387V216M396 216h9v9H396V216M405 216h9v9H405V216M441 216h9v9H441V216M450 216h9v9H450V216M459 216h9v9H459V216M468 216h9v9H468V216M36 225h9v9H36V225M81 225h9v9H81V225M117 225h9v9H117V225M135 225h9v9H135V225M144 225h9v9H144V225M171 225h9v9H171V225M198 225h9v9H198V225M207 225h9v9H207V225M216 225h9v9H216V225M234 225h9v9H234V225M243 225h9v9H243V225M261 225h9v9H261V225M288 225h9v9H288V225M297 225h9v9H297V225M306 225h9v9H306V225M333 225h9v9H333V225M342 225h9v9H342V225M351 225h9v9H351V225M369 225h9v9H369V225M378 225h9v9H378V225M387 225h9v9H387V225M396 225h9v9H396V225M405 225h9v9H405V225M414 225h9v9H414V225M450 225h9v9H450V225M36 234h9v9H36V234M45 234h9v9H45V234M63 234h9v9H63V234M72 234h9v9H72V234M81 234h9v9H81V234M90 234h9v9H90V234M99 234h9v9H99V234M108 234h9v9H108V234M135 234h9v9H135V234M144 234h9v9H144V234M153 234h9v9H153V234M162 234h9v9H162V234M207 234h9v9H207V234M216 234h9v9H216V234M234 234h9v9H234V234M243 234h9v9H243V234M252 234h9v9H252V234M261 234h9v9H261V234M270 234h9v9H270V234M279 234h9v9H279V234M306 234h9v9H306V234M315 234h9v9H315V234M324 234h9v9H324V234M333 234h9v9H333V234M342 234h9v9H342V234M378 234h9v9H378V234M396 234h9v9H396V234M405 234h9v9H405V234M414 234h9v9H414V234M423 234h9v9H423V234M432 234h9v9H432V234M459 234h9v9H459V234M468 234h9v9H468V234M45 243h9v9H45V243M54 243h9v9H54V243M72 243h9v9H72V243M108 243h9v9H108V243M135 243h9v9H135V243M180 243h9v9H180V243M207 243h9v9H207V243M216 243h9v9H216V243M234 243h9v9H234V243M270 243h9v9H270V243M279 243h9v9H279V243M288 243h9v9H288V243M297 243h9v9H297V243M306 243h9v9H306V243M324 243h9v9H324V243M333 243h9v9H333V243M342 243h9v9H342V243M351 243h9v9H351V243M360 243h9v9H360V243M369 243h9v9H369V243M387 243h9v9H387V243M396 243h9v9H396V243M432 243h9v9H432V243M459 243h9v9H459V243M63 252h9v9H63V252M72 252h9v9H72V252M90 252h9v9H90V252M108 252h9v9H108V252M117 252h9v9H117V252M126 252h9v9H126V252M153 252h9v9H153V252M180 252h9v9H180V252M189 252h9v9H189V252M225 252h9v9H225V252M234 252h9v9H234V252M252 252h9v9H252V252M270 252h9v9H270V252M279 252h9v9H279V252M288 252h9v9H288V252M324 252h9v9H324V252M333 252h9v9H333V252M342 252h9v9H342V252M360 252h9v9H360V252M378 252h9v9H378V252M387 252h9v9H387V252M396 252h9v9H396V252M414 252h9v9H414V252M432 252h9v9H432V252M441 252h9v9H441V252M459 252h9v9H459V252M468 252h9v9H468V252M36 261h9v9H36V261M45 261h9v9H45V261M54 261h9v9H54V261M72 261h9v9H72V261M108 261h9v9H108V261M126 261h9v9H126V261M135 261h9v9H135V261M144 261h9v9H144V261M153 261h9v9H153V261M162 261h9v9H162V261M171 261h9v9H171V261M189 261h9v9H189V261M198 261h9v9H198V261M234 261h9v9H234V261M270 261h9v9H270V261M279 261h9v9H279V261M297 261h9v9H297V261M306 261h9v9H306V261M360 261h9v9H360V261M396 261h9v9H396V261M432 261h9v9H432V261M441 261h9v9H441V261M459 261h9v9H459V261M36 270h9v9H36V270M45 270h9v9H45V270M63 270h9v9H63V270M72 270h9v9H72V270M81 270h9v9H81V270M90 270h9v9H90V270M99 270h9v9H99V270M108 270h9v9H108V270M117 270h9v9H117V270M126 270h9v9H126V270M135 270h9v9H135V270M144 270h9v9H144V270M153 270h9v9H153V270M162 270h9v9H162V270M171 270h9v9H171V270M198 270h9v9H198V270M216 270h9v9H216V270M234 270h9v9H234V270M243 270h9v9H243V270M252 270h9v9H252V270M261 270h9v9H261V270M270 270h9v9H270V270M333 270h9v9H333V270M342 270h9v9H342V270M369 270h9v9H369V270M378 270h9v9H378V270M396 270h9v9H396V270M405 270h9v9H405V270M414 270h9v9H414V270M423 270h9v9H423V270M432 270h9v9H432V270M468 270h9v9H468V270M36 279h9v9H36V279M45 279h9v9H45V279M54 279h9v9H54V279M72 279h9v9H72V279M81 279h9v9H81V279M99 279h9v9H99V279M108 279h9v9H108V279M117 279h9v9H117V279M126 279h9v9H126V279M135 279h9v9H135V279M153 279h9v9H153V279M171 279h9v9H171V279M189 279h9v9H189V279M198 279h9v9H198V279M216 279h9v9H216V279M252 279h9v9H252V279M270 279h9v9H270V279M279 279h9v9H279V279M306 279h9v9H306V279M315 279h9v9H315V279M333 279h9v9H333V279M342 279h9v9H342V279M378 279h9v9H378V279M396 279h9v9H396V279M414 279h9v9H414V279M423 279h9v9H423V279M450 279h9v9H450V279M459 279h9v9H459V279M468 279h9v9H468V279M36 288h9v9H36V288M72 288h9v9H72V288M90 288h9v9H90V288M117 288h9v9H117V288M126 288h9v9H126V288M144 288h9v9H144V288M162 288h9v9H162V288M171 288h9v9H171V288M180 288h9v9H180V288M189 288h9v9H189V288M198 288h9v9H198V288M207 288h9v9H207V288M234 288h9v9H234V288M252 288h9v9H252V288M261 288h9v9H261V288M279 288h9v9H279V288M297 288h9v9H297V288M333 288h9v9H333V288M351 288h9v9H351V288M360 288h9v9H360V288M405 288h9v9H405V288M414 288h9v9H414V288M423 288h9v9H423V288M432 288h9v9H432V288M450 288h9v9H450V288M459 288h9v9H459V288M468 288h9v9H468V288M36 297h9v9H36V297M108 297h9v9H108V297M117 297h9v9H117V297M135 297h9v9H135V297M162 297h9v9H162V297M243 297h9v9H243V297M261 297h9v9H261V297M288 297h9v9H288V297M297 297h9v9H297V297M306 297h9v9H306V297M360 297h9v9H360V297M387 297h9v9H387V297M459 297h9v9H459V297M45 306h9v9H45V306M54 306h9v9H54V306M72 306h9v9H72V306M90 306h9v9H90V306M144 306h9v9H144V306M153 306h9v9H153V306M162 306h9v9H162V306M171 306h9v9H171V306M180 306h9v9H180V306M189 306h9v9H189V306M198 306h9v9H198V306M216 306h9v9H216V306M243 306h9v9H243V306M270 306h9v9H270V306M279 306h9v9H279V306M288 306h9v9H288V306M297 306h9v9H297V306M306 306h9v9H306V306M324 306h9v9H324V306M333 306h9v9H333V306M342 306h9v9H342V306M351 306h9v9H351V306M360 306h9v9H360V306M387 306h9v9H387V306M405 306h9v9H405V306M423 306h9v9H423V306M441 306h9v9H441V306M468 306h9v9H468V306M45 315h9v9H45V315M54 315h9v9H54V315M72 315h9v9H72V315M81 315h9v9H81V315M99 315h9v9H99V315M108 315h9v9H108V315M117 315h9v9H117V315M126 315h9v9H126V315M144 315h9v9H144V315M153 315h9v9H153V315M162 315h9v9H162V315M171 315h9v9H171V315M189 315h9v9H189V315M243 315h9v9H243V315M261 315h9v9H261V315M270 315h9v9H270V315M297 315h9v9H297V315M306 315h9v9H306V315M333 315h9v9H333V315M360 315h9v9H360V315M387 315h9v9H387V315M405 315h9v9H405V315M432 315h9v9H432V315M450 315h9v9H450V315M45 324h9v9H45V324M54 324h9v9H54V324M63 324h9v9H63V324M72 324h9v9H72V324M81 324h9v9H81V324M90 324h9v9H90V324M126 324h9v9H126V324M135 324h9v9H135V324M144 324h9v9H144V324M153 324h9v9H153V324M162 324h9v9H162V324M180 324h9v9H180V324M207 324h9v9H207V324M225 324h9v9H225V324M252 324h9v9H252V324M261 324h9v9H261V324M279 324h9v9H279V324M315 324h9v9H315V324M324 324h9v9H324V324M342 324h9v9H342V324M378 324h9v9H378V324M387 324h9v9H387V324M396 324h9v9H396V324M405 324h9v9H405V324M432 324h9v9H432V324M450 324h9v9H450V324M459 324h9v9H459V324M468 324h9v9H468V324M36 333h9v9H36V333M99 333h9v9H99V333M135 333h9v9H135V333M153 333h9v9H153V333M189 333h9v9H189V333M216 333h9v9H216V333M243 333h9v9H243V333M261 333h9v9H261V333M270 333h9v9H270V333M288 333h9v9H288V333M315 333h9v9H315V333M333 333h9v9H333V333M360 333h9v9H360V333M405 333h9v9H405V333M432 333h9v9H432V333M441 333h9v9H441V333M459 333h9v9H459V333M36 342h9v9H36V342M45 342h9v9H45V342M54 342h9v9H54V342M72 342h9v9H72V342M81 342h9v9H81V342M90 342h9v9H90V342M108 342h9v9H108V342M153 342h9v9H153V342M162 342h9v9H162V342M171 342h9v9H171V342M225 342h9v9H225V342M279 342h9v9H279V342M315 342h9v9H315V342M324 342h9v9H324V342M333 342h9v9H333V342M360 342h9v9H360V342M369 342h9v9H369V342M387 342h9v9H387V342M414 342h9v9H414V342M432 342h9v9H432V342M468 342h9v9H468V342M45 351h9v9H45V351M63 351h9v9H63V351M72 351h9v9H72V351M99 351h9v9H99V351M108 351h9v9H108V351M135 351h9v9H135V351M144 351h9v9H144V351M153 351h9v9H153V351M171 351h9v9H171V351M180 351h9v9H180V351M189 351h9v9H189V351M198 351h9v9H198V351M234 351h9v9H234V351M261 351h9v9H261V351M270 351h9v9H270V351M288 351h9v9H288V351M306 351h9v9H306V351M333 351h9v9H333V351M342 351h9v9H342V351M351 351h9v9H351V351M369 351h9v9H369V351M378 351h9v9H378V351M387 351h9v9H387V351M396 351h9v9H396V351M441 351h9v9H441V351M36 360h9v9H36V360M54 360h9v9H54V360M81 360h9v9H81V360M90 360h9v9H90V360M99 360h9v9H99V360M108 360h9v9H108V360M135 360h9v9H135V360M171 360h9v9H171V360M207 360h9v9H207V360M225 360h9v9H225V360M243 360h9v9H243V360M252 360h9v9H252V360M279 360h9v9H279V360M288 360h9v9H288V360M297 360h9v9H297V360M324 360h9v9H324V360M351 360h9v9H351V360M360 360h9v9H360V360M369 360h9v9H369V360M387 360h9v9H387V360M405 360h9v9H405V360M414 360h9v9H414V360M441 360h9v9H441V360M459 360h9v9H459V360M45 369h9v9H45V369M54 369h9v9H54V369M81 369h9v9H81V369M99 369h9v9H99V369M126 369h9v9H126V369M135 369h9v9H135V369M171 369h9v9H171V369M180 369h9v9H180V369M207 369h9v9H207V369M234 369h9v9H234V369M243 369h9v9H243V369M252 369h9v9H252V369M279 369h9v9H279V369M288 369h9v9H288V369M306 369h9v9H306V369M315 369h9v9H315V369M324 369h9v9H324V369M333 369h9v9H333V369M351 369h9v9H351V369M441 369h9v9H441V369M45 378h9v9H45V378M81 378h9v9H81V378M90 378h9v9H90V378M99 378h9v9H99V378M126 378h9v9H126V378M135 378h9v9H135V378M144 378h9v9H144V378M153 378h9v9H153V378M162 378h9v9H162V378M180 378h9v9H180V378M189 378h9v9H189V378M216 378h9v9H216V378M288 378h9v9H288V378M315 378h9v9H315V378M324 378h9v9H324V378M333 378h9v9H333V378M342 378h9v9H342V378M351 378h9v9H351V378M360 378h9v9H360V378M369 378h9v9H369V378M378 378h9v9H378V378M396 378h9v9H396V378M405 378h9v9H405V378M414 378h9v9H414V378M432 378h9v9H432V378M459 378h9v9H459V378M468 378h9v9H468V378M45 387h9v9H45V387M54 387h9v9H54V387M63 387h9v9H63V387M117 387h9v9H117V387M126 387h9v9H126V387M153 387h9v9H153V387M162 387h9v9H162V387M171 387h9v9H171V387M198 387h9v9H198V387M207 387h9v9H207V387M234 387h9v9H234V387M252 387h9v9H252V387M261 387h9v9H261V387M270 387h9v9H270V387M315 387h9v9H315V387M333 387h9v9H333V387M342 387h9v9H342V387M351 387h9v9H351V387M360 387h9v9H360V387M378 387h9v9H378V387M387 387h9v9H387V387M432 387h9v9H432V387M450 387h9v9H450V387M36 396h9v9H36V396M45 396h9v9H45V396M54 396h9v9H54V396M90 396h9v9H90V396M126 396h9v9H126V396M144 396h9v9H144V396M162 396h9v9H162V396M180 396h9v9H180V396M198 396h9v9H198V396M207 396h9v9H207V396M216 396h9v9H216V396M225 396h9v9H225V396M234 396h9v9H234V396M243 396h9v9H243V396M252 396h9v9H252V396M261 396h9v9H261V396M270 396h9v9H270V396M279 396h9v9H279V396M297 396h9v9H297V396M306 396h9v9H306V396M351 396h9v9H351V396M360 396h9v9H360V396M378 396h9v9H378V396M387 396h9v9H387V396M396 396h9v9H396V396M405 396h9v9H405V396M414 396h9v9H414V396M423 396h9v9H423V396M432 396h9v9H432V396M450 396h9v9H450V396M459 396h9v9H459V396M108 405h9v9H108V405M117 405h9v9H117V405M126 405h9v9H126V405M153 405h9v9H153V405M162 405h9v9H162V405M198 405h9v9H198V405M225 405h9v9H225V405M234 405h9v9H234V405M270 405h9v9H270V405M288 405h9v9H288V405M297 405h9v9H297V405M306 405h9v9H306V405M324 405h9v9H324V405M360 405h9v9H360V405M387 405h9v9H387V405M396 405h9v9H396V405M432 405h9v9H432V405M36 414h9v9H36V414M45 414h9v9H45V414M54 414h9v9H54V414M63 414h9v9H63V414M72 414h9v9H72V414M81 414h9v9H81V414M90 414h9v9H90V414M135 414h9v9H135V414M162 414h9v9H162V414M171 414h9v9H171V414M180 414h9v9H180V414M189 414h9v9H189V414M216 414h9v9H216V414M225 414h9v9H225V414M234 414h9v9H234V414M252 414h9v9H252V414M270 414h9v9H270V414M297 414h9v9H297V414M315 414h9v9H315V414M324 414h9v9H324V414M351 414h9v9H351V414M360 414h9v9H360V414M396 414h9v9H396V414M414 414h9v9H414V414M432 414h9v9H432V414M441 414h9v9H441V414M459 414h9v9H459V414M468 414h9v9H468V414M36 423h9v9H36V423M90 423h9v9H90V423M126 423h9v9H126V423M153 423h9v9H153V423M162 423h9v9H162V423M207 423h9v9H207V423M234 423h9v9H234V423M270 423h9v9H270V423M279 423h9v9H279V423M288 423h9v9H288V423M297 423h9v9H297V423M306 423h9v9H306V423M324 423h9v9H324V423M333 423h9v9H333V423M351 423h9v9H351V423M378 423h9v9H378V423M387 423h9v9H387V423M396 423h9v9H396V423M432 423h9v9H432V423M36 432h9v9H36V432M54 432h9v9H54V432M63 432h9v9H63V432M72 432h9v9H72V432M90 432h9v9H90V432M117 432h9v9H117V432M198 432h9v9H198V432M234 432h9v9H234V432M243 432h9v9H243V432M252 432h9v9H252V432M261 432h9v9H261V432M270 432h9v9H270V432M279 432h9v9H279V432M297 432h9v9H297V432M306 432h9v9H306V432M315 432h9v9H315V432M342 432h9v9H342V432M351 432h9v9H351V432M360 432h9v9H360V432M378 432h9v9H378V432M396 432h9v9H396V432M405 432h9v9H405V432M414 432h9v9H414V432M423 432h9v9H423V432M432 432h9v9H432V432M450 432h9v9H450V432M468 432h9v9H468V432M36 441h9v9H36V441M54 441h9v9H54V441M63 441h9v9H63V441M72 441h9v9H72V441M90 441h9v9H90V441M126 441h9v9H126V441M135 441h9v9H135V441M144 441h9v9H144V441M153 441h9v9H153V441M162 441h9v9H162V441M171 441h9v9H171V441M189 441h9v9H189V441M207 441h9v9H207V441M243 441h9v9H243V441M270 441h9v9H270V441M279 441h9v9H279V441M288 441h9v9H288V441M297 441h9v9H297V441M306 441h9v9H306V441M315 441h9v9H315V441M324 441h9v9H324V441M333 441h9v9H333V441M342 441h9v9H342V441M351 441h9v9H351V441M387 441h9v9H387V441M396 441h9v9H396V441M414 441h9v9H414V441M459 441h9v9H459V441M468 441h9v9H468V441M36 450h9v9H36V450M54 450h9v9H54V450M63 450h9v9H63V450M72 450h9v9H72V450M90 450h9v9H90V450M126 450h9v9H126V450M135 450h9v9H135V450M162 450h9v9H162V450M171 450h9v9H171V450M216 450h9v9H216V450M234 450h9v9H234V450M243 450h9v9H243V450M252 450h9v9H252V450M261 450h9v9H261V450M297 450h9v9H297V450M306 450h9v9H306V450M351 450h9v9H351V450M369 450h9v9H369V450M387 450h9v9H387V450M405 450h9v9H405V450M414 450h9v9H414V450M423 450h9v9H423V450M459 450h9v9H459V450M468 450h9v9H468V450M36 459h9v9H36V459M90 459h9v9H90V459M135 459h9v9H135V459M144 459h9v9H144V459M180 459h9v9H180V459M189 459h9v9H189V459M198 459h9v9H198V459M207 459h9v9H207V459M216 459h9v9H216V459M225 459h9v9H225V459M243 459h9v9H243V459M297 459h9v9H297V459M306 459h9v9H306V459M315 459h9v9H315V459M324 459h9v9H324V459M378 459h9v9H378V459M414 459h9v9H414V459M423 459h9v9H423V459M450 459h9v9H450V459M468 459h9v9H468V459M36 468h9v9H36V468M45 468h9v9H45V468M54 468h9v9H54V468M63 468h9v9H63V468M72 468h9v9H72V468M81 468h9v9H81V468M90 468h9v9H90V468M108 468h9v9H108V468M126 468h9v9H126V468M144 468h9v9H144V468M180 468h9v9H180V468M207 468h9v9H207V468M234 468h9v9H234V468M243 468h9v9H243V468M252 468h9v9H252V468M270 468h9v9H270V468M279 468h9v9H279V468M297 468h9v9H297V468M333 468h9v9H333V468M351 468h9v9H351V468M378 468h9v9H378V468M387 468h9v9H387V468M405 468h9v9H405V468M423 468h9v9H423V468M432 468h9v9H432V468M468 468h9v9H468V468"/></svg>